<svg width="16" height="16" viewBox="0 0 16 16" fill="none" xmlns="http://www.w3.org/2000/svg">
<path d="M2.78605 4.18773C3.78297 4.18773 4.59114 3.35499 4.59114 2.32775C4.59114 1.30051 3.78297 0.467773 2.78605 0.467773C1.78912 0.467773 0.980957 1.30051 0.980957 2.32775C0.980957 3.35499 1.78912 4.18773 2.78605 4.18773Z" fill="#678570" fill-opacity="0.53"/>
<path d="M6.29562 5.59694V15.9159H9.40504V10.813C9.40504 9.46645 9.65089 8.16244 11.2712 8.16244C12.8692 8.16244 12.889 9.70191 12.889 10.898V15.9168H16.0001V10.2579C16.0001 7.47814 15.4193 5.34192 12.2661 5.34192C10.7523 5.34192 9.73751 6.19794 9.32254 7.00805H9.28046V5.59694H6.29562ZM1.22849 5.59694H4.34285V15.9159H1.22849V5.59694Z" fill="#678570" fill-opacity="0.53"/>
</svg>
