<svg width="15" height="21" viewBox="0 0 15 21" fill="none" xmlns="http://www.w3.org/2000/svg">
<path d="M7.96908 0.380859C3.96079 0.380859 0 3.12158 0 7.55739C0 10.3782 1.54694 11.981 2.48448 11.981C2.87137 11.981 3.09388 10.8751 3.09388 10.5629C3.09388 10.1904 2.16822 9.39672 2.16822 7.84588C2.16822 4.62433 4.55894 2.34008 7.65282 2.34008C10.3129 2.34008 12.2818 3.89091 12.2818 6.73998C12.2818 8.86781 11.4499 12.8587 8.75412 12.8587C7.78157 12.8587 6.94904 12.1374 6.94904 11.104C6.94904 9.58905 7.98033 8.12284 7.98033 6.55983C7.98033 3.90758 4.31205 4.38841 4.31205 7.59393C4.31205 8.26709 4.39393 9.01205 4.68707 9.62559C4.14767 12.006 3.04638 15.552 3.04638 18.0042C3.04638 18.7613 3.15201 19.5069 3.22201 20.2641C3.35451 20.4167 3.28826 20.4006 3.4914 20.3244C5.46023 17.5593 5.39022 17.0188 6.28089 13.4004C6.76153 14.3384 8.00346 14.8429 8.98787 14.8429C13.1362 14.8429 15 10.6956 15 6.95731C15 2.97862 11.648 0.382142 7.96846 0.382142L7.96908 0.380859Z" fill="#678570" fill-opacity="0.53"/>
</svg>
